{
    "coverart": {
        "status": "not-available"
    },
    "id": "123456",
    "instrumental": {
        "status": "waiting"
    },
    "key-bpm": {
        "completed": {
            "bpm": "108",
            "bpm_float": "108.17307692307692",
            "bpmu": "108",
            "bpmu_float": "108.17307692307692",
            "freqs": {
                "A": "10349.067",
                "A#": "8344.19",
                "B": "6862.1543",
                "C": "6079.4756",
                "C#": "5349.8813",
                "D": "5953.167",
                "D#": "5308.5786",
                "E": "6945.24",
                "F": "7300.827",
                "F#": "6262.4395",
                "G": "8181.5166",
                "G#": "8841.755"
            },
            "key": "A minor",
            "perf": {
                "start": "2023-04-12 19:01:40",
                "stop": "2023-04-12 19:02:33",
                "time_elapsed": 53.18700170516968,
                "time_start": 1681340500.2551072,
                "time_stop": 1681340553.4421089
            }
        },
        "status": "completed"
    },
    "lyrics": {
        "status": "waiting"
    },
    "mastering": {
        "completed": {
            "command": {
                "stderr": "Peak RSS(MB)\t3\tCurrent RSS(MB)\t3\nIpp initialized ippCore 2021.7 (r0xa954907f)\nPeak RSS(MB)\t3\tCurrent RSS(MB)\t3\nPeak RSS(MB)\t3\tCurrent RSS(MB)\t3\nprocess ffmpeg -i \"/tmp/6b16177d-d52d-4782-ada9-14d64918ac34\" -acodec pcm_f32le -ac 2 -ar 44100 -f wav \"/tmp/phase_limiter/3O38mNWYp7BNLclNPP4xOjRvMXJFookb.wav\"\nprocess called\nid57319\nstdin closed\nffmpeg version 5.1.2 Copyright (c) 2000-2022 the FFmpeg developers\n  built with Apple clang version 13.0.0 (clang-1300.0.29.30)\n  configuration: --prefix=/usr/local/Cellar/ffmpeg/5.1.2_4 --enable-shared --enable-pthreads --enable-version3 --cc=clang --host-cflags= --host-ldflags= --enable-ffplay --enable-gnutls --enable-gpl --enable-libaom --enable-libaribb24 --enable-libbluray --enable-libdav1d --enable-libmp3lame --enable-libopus --enable-librav1e --enable-librist --enable-librubberband --enable-libsnappy --enable-libsrt --enable-libsvtav1 --enable-libtesseract --enable-libtheora --enable-libvidstab --enable-libvmaf --enable-libvorbis --enable-libvpx --enable-libwebp --enable-libx264 --enable-libx265 --enable-libxml2 --enable-libxvid --enable-lzma --enable-libfontconfig --enable-libfreetype --enable-frei0r --enable-libass --enable-libopencore-amrnb --enable-libopencore-amrwb --enable-libopenjpeg --enable-libspeex --enable-libsoxr --enable-libzmq --enable-libzimg --disable-libjack --disable-indev=jack --enable-videotoolbox\n  libavutil      57. 28.100 / 57. 28.100\n  libavcodec     59. 37.100 / 59. 37.100\n  libavformat    59. 27.100 / 59. 27.100\n  libavdevice    59.  7.100 / 59.  7.100\n  libavfilter     8. 44.100 /  8. 44.100\n  libswscale      6.  7.100 /  6.  7.100\n  libswresample   4.  7.100 /  4.  7.100\n  libpostproc    56.  6.100 / 56.  6.100\nGuessed Channel Layout for Input Stream #0.0 : stereo\nInput #0, wav, from '/tmp/6b16177d-d52d-4782-ada9-14d64918ac34':\n  Metadata:\n    encoder         : Lavf59.27.100\n  Duration: 00:03:11.17, bitrate: 1536 kb/s\n  Stream #0:0: Audio: pcm_s16le ([1][0][0][0] / 0x0001), 48000 Hz, stereo, s16, 1536 kb/s\nStream mapping:\n  Stream #0:0 -> #0:0 (pcm_s16le (native) -> pcm_f32le (native))\nPress [q] to stop, [?] for help\nOutput #0, wav, to '/tmp/phase_limiter/3O38mNWYp7BNLclNPP4xOjRvMXJFookb.wav':\n  Metadata:\n    ISFT            : Lavf59.27.100\n  Stream #0:0: Audio: pcm_f32le ([3][0][0][0] / 0x0003), 44100 Hz, stereo, flt, 2822 kb/s\n    Metadata:\n      encoder         : Lavc59.37.100 pcm_f32le\nsize=       7kB time=00:00:00.02 bitrate=2865.9kbits/s speed=1.05e+04x    \nsize=   65864kB time=00:03:11.16 bitrate=2822.4kbits/s speed= 706x    \nvideo:0kB audio:65864kB subtitle:0kB other streams:0kB global headers:0kB muxing overhead: 0.000169%\nexit_status0\ncreate normalized format wave lap: 0.340278\nPeak RSS(MB)\t3\tCurrent RSS(MB)\t3\nsfinfo.format 0x00130006.\n8430593 samples read.\nload wave in float lap: 0.377884\nPeak RSS(MB)\t67\tCurrent RSS(MB)\t67\nCutLowAndHighFreq lap: 0.714433\nPeak RSS(MB)\t167\tCurrent RSS(MB)\t128\nNormalize lap: 0.7258\nPeak RSS(MB)\t167\tCurrent RSS(MB)\t128\nCutLowAndHighFreq lap: 1.02439\nPeak RSS(MB)\t172\tCurrent RSS(MB)\t139\nNormalize lap: 1.03569\nPeak RSS(MB)\t172\tCurrent RSS(MB)\t139\nPre-compression: \n  loudness: -11.3117\n  threshold: -5.31166\n  max: -8\npre-compression lap: 1.59813\nPeak RSS(MB)\t172\tCurrent RSS(MB)\t107\npre-CutLowAndHighFreq lap: 1.91036\nPeak RSS(MB)\t174\tCurrent RSS(MB)\t142\nNormalize lap: 1.92278\nPeak RSS(MB)\t174\tCurrent RSS(MB)\t142\ngain: 2.31158\ncalculate gain lap: 2.0758\nPeak RSS(MB)\t174\tCurrent RSS(MB)\t109\nApply gain lap: 2.08762\nPeak RSS(MB)\t174\tCurrent RSS(MB)\t109\nupsampled\nPeak RSS(MB)\t174\tCurrent RSS(MB)\t173\nGradCalculator initialized\nPeak RSS(MB)\t174\tCurrent RSS(MB)\t168\nThreadVar1 constructor\nThreadVar1 constructor\nThreadVar1 constructor\nThreadVar1 constructor\nThreadVar1 constructor\nThreadVar1 constructor\nThreadVar1 constructor\nThreadVar1 constructor\nPreCalc1Manager constructor\nPreCalc1 constructor\nPreCalc1 constructor\nPreCalc1 constructor\nPreCalc1 constructor\nPreCalc1 constructor\nPreCalc1 constructor\nPreCalc1 constructor\nunit_eval:1.82577e+06\noptimizeWithProgressCallback\noptimizeWithProgressCallback loop start\nevalProx:18177\tevalOut:2764.36\tdot_product:-8458.47\tnorm_sqr:8448.06\nevalProx:4445.76\tevalOut:2764.36\tdot_product:-4237.08\tnorm_sqr:2117.49\nevalProx:2118.59\tevalOut:2764.36\tdot_product:-2120.12\tnorm_sqr:529.922\nevalProx:2070.29\tevalOut:2764.36\tdot_product:-1060.38\tnorm_sqr:132.535\neval:2070.29\tt:0.125\tnoise:0.870964\tnormalized_eval:8.60173e+08\nevalProx:2270.36\tevalOut:2599.07\tdot_product:-459.501\tnorm_sqr:57.4344\neval:2270.36\tt:0.125\tnoise:0.758578\tnormalized_eval:7.15564e+08\nevalProx:2655.79\tevalOut:2776.65\tdot_product:-482.995\tnorm_sqr:60.37\nevalProx:2625.72\tevalOut:2776.65\tdot_product:-241.524\tnorm_sqr:15.0951\neval:2625.72\tt:0.0625\tnoise:0.660693\tnormalized_eval:6.27773e+08\nevalProx:3074.3\tevalOut:3199.89\tdot_product:-308.238\tnorm_sqr:19.2578\nevalProx:3091.36\tevalOut:3199.89\tdot_product:-154.2\tnorm_sqr:4.81842\neval:3091.36\tt:0.03125\tnoise:0.57544\tnormalized_eval:5.60666e+08\nevalProx:3636.9\tevalOut:3730.72\tdot_product:-112.677\tnorm_sqr:3.52096\neval:3636.9\tt:0.03125\tnoise:0.501187\tnormalized_eval:5.00364e+08\nevalProx:4241.11\tevalOut:4351.96\tdot_product:-149.196\tnorm_sqr:4.66203\neval:4241.11\tt:0.03125\tnoise:0.436516\tnormalized_eval:4.42623e+08\nevalProx:4999.85\tevalOut:5044.95\tdot_product:-374.872\tnorm_sqr:11.7023\nevalProx:4939.94\tevalOut:5044.95\tdot_product:-187.729\tnorm_sqr:2.93303\neval:4939.94\tt:0.015625\tnoise:0.380189\tnormalized_eval:3.9109e+08\nevalProx:5760.13\tevalOut:5865.15\tdot_product:-293.567\tnorm_sqr:4.58433\nevalProx:5765.46\tevalOut:5865.15\tdot_product:-146.9\tnorm_sqr:1.14761\neval:5765.46\tt:0.0078125\tnoise:0.331131\tnormalized_eval:3.46249e+08\nevalProx:6715.35\tevalOut:6784.22\tdot_product:-74.7114\tnorm_sqr:0.582973\neval:6715.35\tt:0.0078125\tnoise:0.288403\tnormalized_eval:3.05931e+08\nevalProx:7769.19\tevalOut:7862\tdot_product:-97.8414\tnorm_sqr:0.76479\neval:7769.19\tt:0.0078125\tnoise:0.251189\tnormalized_eval:2.68491e+08\nevalProx:8907.89\tevalOut:9029.66\tdot_product:-137.607\tnorm_sqr:1.07506\neval:8907.89\tt:0.0078125\tnoise:0.218776\tnormalized_eval:2.33523e+08\nevalProx:10164.5\tevalOut:10269.6\tdot_product:-272.716\tnorm_sqr:2.12992\nevalProx:10175.1\tevalOut:10269.6\tdot_product:-136.421\tnorm_sqr:0.532886\neval:10175.1\tt:0.00390625\tnoise:0.190546\tnormalized_eval:2.02345e+08\nevalProx:11580\tevalOut:11692.9\tdot_product:-253.786\tnorm_sqr:0.990391\nevalProx:11601.1\tevalOut:11692.9\tdot_product:-127.048\tnorm_sqr:0.247802\neval:11601.1\tt:0.00195312\tnoise:0.165959\tnormalized_eval:1.75007e+08\nevalProx:13180.9\tevalOut:13263.8\tdot_product:-90.5861\tnorm_sqr:0.176994\neval:13180.9\tt:0.00195312\tnoise:0.144544\tnormalized_eval:1.50835e+08\nevalProx:14885.2\tevalOut:14995.7\tdot_product:-116.941\tnorm_sqr:0.228405\neval:14885.2\tt:0.00195312\tnoise:0.125893\tnormalized_eval:1.29214e+08\nevalProx:16684.6\tevalOut:16828.1\tdot_product:-168.428\tnorm_sqr:0.328964\neval:16684.6\tt:0.00195312\tnoise:0.109648\tnormalized_eval:1.09868e+08\nevalProx:18648.7\tevalOut:18739.5\tdot_product:-397.944\tnorm_sqr:0.777197\nevalProx:18617.1\tevalOut:18739.5\tdot_product:-198.986\tnorm_sqr:0.194314\neval:18617.1\tt:0.000976562\tnoise:0.0954993\tnormalized_eval:9.29966e+07\nevalProx:20707.8\tevalOut:20848.9\tdot_product:-428.288\tnorm_sqr:0.418251\nevalProx:20706.5\tevalOut:20848.9\tdot_product:-214.145\tnorm_sqr:0.104565\neval:20706.5\tt:0.000488281\tnoise:0.0831764\tnormalized_eval:7.84622e+07\nevalProx:22940.5\tevalOut:23051.8\tdot_product:-129.206\tnorm_sqr:0.0630769\neval:22940.5\tt:0.000488281\tnoise:0.0724436\tnormalized_eval:6.59414e+07\nevalProx:25265.1\tevalOut:25408\tdot_product:-157.609\tnorm_sqr:0.0769692\neval:25265.1\tt:0.000488281\tnoise:0.0630957\tnormalized_eval:5.50904e+07\nevalProx:27639.8\tevalOut:27817.5\tdot_product:-237.095\tnorm_sqr:0.115769\neval:27639.8\tt:0.000488281\tnoise:0.0549541\tnormalized_eval:4.57183e+07\nevalProx:30300.1\tevalOut:30286\tdot_product:-769.22\tnorm_sqr:0.375586\nevalProx:30096.9\tevalOut:30286\tdot_product:-384.625\tnorm_sqr:0.0939021\nevalProx:30142.4\tevalOut:30286\tdot_product:-192.321\tnorm_sqr:0.023478\neval:30142.4\tt:0.00012207\tnoise:0.047863\tnormalized_eval:3.7821e+07\nevalProx:32772.5\tevalOut:32886.7\tdot_product:-123.285\tnorm_sqr:0.0150498\neval:32772.5\tt:0.00012207\tnoise:0.0416869\tnormalized_eval:3.11936e+07\nevalProx:35462.9\tevalOut:35642\tdot_product:-209.196\tnorm_sqr:0.0255392\neval:35462.9\tt:0.00012207\tnoise:0.0363078\tnormalized_eval:2.56052e+07\nevalProx:38138.9\tevalOut:38351.6\tdot_product:-240.097\tnorm_sqr:0.0293091\neval:38138.9\tt:0.00012207\tnoise:0.0316228\tnormalized_eval:2.08893e+07\nevalProx:40764.9\tevalOut:41012.1\tdot_product:-329.913\tnorm_sqr:0.040273\neval:40764.9\tt:0.00012207\tnoise:0.0275423\tnormalized_eval:1.69372e+07\nevalProx:43649.6\tevalOut:43663.8\tdot_product:-994.848\tnorm_sqr:0.121441\nevalProx:43411.1\tevalOut:43663.8\tdot_product:-497.43\tnorm_sqr:0.0303609\neval:43411.1\tt:6.10352e-05\tnoise:0.0239883\tnormalized_eval:1.36822e+07\nevalProx:46202.4\tevalOut:46500\tdot_product:-1245.98\tnorm_sqr:0.0760448\nevalProx:46113.9\tevalOut:46500\tdot_product:-623.042\tnorm_sqr:0.0190141\neval:46113.9\tt:3.05176e-05\tnoise:0.020893\tnormalized_eval:1.10252e+07\nevalProx:48852.3\tevalOut:49136.6\tdot_product:-356.374\tnorm_sqr:0.0108762\neval:48852.3\tt:3.05176e-05\tnoise:0.018197\tnormalized_eval:8.86012e+06\nevalProx:51480.9\tevalOut:51824.1\tdot_product:-407.173\tnorm_sqr:0.0124264\neval:51480.9\tt:3.05176e-05\tnoise:0.0158489\tnormalized_eval:7.08274e+06\nevalProx:53974.3\tevalOut:54331.5\tdot_product:-531.758\tnorm_sqr:0.0162285\neval:53974.3\tt:3.05176e-05\tnoise:0.0138038\tnormalized_eval:5.63302e+06\nevalProx:57089.9\tevalOut:56856.2\tdot_product:-1873.6\tnorm_sqr:0.0571768\nevalProx:56445.6\tevalOut:56856.2\tdot_product:-936.863\tnorm_sqr:0.0142965\nevalProx:56519.2\tevalOut:56856.2\tdot_product:-468.478\tnorm_sqr:0.00357618\neval:56519.2\tt:7.62939e-06\tnoise:0.0120226\tnormalized_eval:4.47456e+06\nevalProx:59189.8\tevalOut:59442\tdot_product:-277.97\tnorm_sqr:0.00212174\neval:59189.8\tt:7.62939e-06\tnoise:0.0104713\tnormalized_eval:3.55469e+06\nevalProx:61849.7\tevalOut:62291.7\tdot_product:-532.712\tnorm_sqr:0.00406482\neval:61849.7\tt:7.62939e-06\tnoise:0.00912011\tnormalized_eval:2.81768e+06\nevalProx:64322.3\tevalOut:64830.1\tdot_product:-594.426\tnorm_sqr:0.0045358\neval:64322.3\tt:7.62939e-06\tnoise:0.00794328\tnormalized_eval:2.22288e+06\nevalProx:66610.7\tevalOut:67106.8\tdot_product:-714.071\tnorm_sqr:0.00544861\neval:66610.7\tt:7.62939e-06\tnoise:0.00691831\tnormalized_eval:1.74622e+06\nevalProx:69701.1\tevalOut:69429.1\tdot_product:-2361.78\tnorm_sqr:0.0180192\nevalProx:68906\tevalOut:69429.1\tdot_product:-1180.93\tnorm_sqr:0.00450541\nevalProx:69003\tevalOut:69429.1\tdot_product:-590.474\tnorm_sqr:0.00112683\neval:69003\tt:1.90735e-06\tnoise:0.0060256\tnormalized_eval:1.37222e+06\nevalProx:71591.9\tevalOut:71876.1\tdot_product:-307.039\tnorm_sqr:0.000586347\neval:71591.9\tt:1.90735e-06\tnoise:0.00524807\tnormalized_eval:1.07999e+06\nevalProx:74259.9\tevalOut:74758.8\tdot_product:-591.756\tnorm_sqr:0.00112889\neval:74259.9\tt:1.90735e-06\tnoise:0.00457088\tnormalized_eval:849784\nevalProx:76779.9\tevalOut:77399.3\tdot_product:-706.404\tnorm_sqr:0.00134757\neval:76779.9\tt:1.90735e-06\tnoise:0.00398107\tnormalized_eval:666503\nevalProx:79072.9\tevalOut:79728.6\tdot_product:-909.128\tnorm_sqr:0.00173424\neval:79072.9\tt:1.90735e-06\tnoise:0.00346737\tnormalized_eval:520694\nevalProx:82275.8\tevalOut:82009.9\tdot_product:-2849.47\tnorm_sqr:0.00543486\nevalProx:81363.4\tevalOut:82009.9\tdot_product:-1424.95\tnorm_sqr:0.00135927\nevalProx:81491.9\tevalOut:82009.9\tdot_product:-712.512\tnorm_sqr:0.000340143\neval:81491.9\tt:4.76837e-07\tnoise:0.00301995\tnormalized_eval:407070\nevalProx:84153.8\tevalOut:84453.1\tdot_product:-318.001\tnorm_sqr:0.00015189\neval:84153.8\tt:4.76837e-07\tnoise:0.00263027\tnormalized_eval:318881\nevalProx:86982.9\tevalOut:87478.7\tdot_product:-584.879\tnorm_sqr:0.000279056\neval:86982.9\tt:4.76837e-07\tnoise:0.00229087\tnormalized_eval:250028\nevalProx:89751.5\tevalOut:90380.4\tdot_product:-701.556\tnorm_sqr:0.000334705\neval:89751.5\tt:4.76837e-07\tnoise:0.00199526\tnormalized_eval:195703\nevalProx:92332.2\tevalOut:93044.8\tdot_product:-971.551\tnorm_sqr:0.000463415\neval:92332.2\tt:4.76837e-07\tnoise:0.0017378\tnormalized_eval:152724\nevalProx:95868.3\tevalOut:95637.4\tdot_product:-3146.29\tnorm_sqr:0.00150017\nevalProx:94908.3\tevalOut:95637.4\tdot_product:-1573.51\tnorm_sqr:0.000375243\nevalProx:95061.9\tevalOut:95637.4\tdot_product:-786.774\tnorm_sqr:9.38915e-05\neval:95061.9\tt:1.19209e-07\tnoise:0.00151356\tnormalized_eval:119278\nevalProx:98031\tevalOut:98337.1\tdot_product:-322.027\tnorm_sqr:3.84542e-05\neval:98031\tt:1.19209e-07\tnoise:0.00131826\tnormalized_eval:93307.8\nevalProx:101188\tevalOut:101659\tdot_product:-554.661\tnorm_sqr:6.6194e-05\neval:101188\tt:1.19209e-07\tnoise:0.00114815\tnormalized_eval:73061\nevalProx:104345\tevalOut:104919\tdot_product:-630.285\tnorm_sqr:7.52661e-05\neval:104345\tt:1.19209e-07\tnoise:0.001\tnormalized_eval:57151.3\nevalProx:107385\tevalOut:108053\tdot_product:-904.396\tnorm_sqr:0.000107939\neval:107385\tt:1.19209e-07\tnoise:0.000870964\tnormalized_eval:44616.6\nevalProx:111337\tevalOut:111156\tdot_product:-3004.86\tnorm_sqr:0.000358225\nevalProx:110450\tevalOut:111156\tdot_product:-1502.68\tnorm_sqr:8.9617e-05\nevalProx:110604\tevalOut:111156\tdot_product:-751.41\tnorm_sqr:2.24497e-05\neval:110604\tt:2.98023e-08\tnoise:0.000758578\tnormalized_eval:34859.7\nevalProx:114070\tevalOut:114350\tdot_product:-294.66\tnorm_sqr:8.85126e-06\neval:114070\tt:2.98023e-08\tnoise:0.000660693\tnormalized_eval:27272.5\nevalProx:117744\tevalOut:118155\tdot_product:-486.824\tnorm_sqr:1.45338e-05\neval:117744\tt:2.98023e-08\tnoise:0.00057544\tnormalized_eval:21354.6\nevalProx:121458\tevalOut:121943\tdot_product:-526.303\tnorm_sqr:1.57138e-05\neval:121458\tt:2.98023e-08\tnoise:0.000501187\tnormalized_eval:16710.2\nevalProx:125110\tevalOut:125676\tdot_product:-746.347\tnorm_sqr:2.22738e-05\neval:125110\tt:2.98023e-08\tnoise:0.000436516\tnormalized_eval:13057.1\nevalProx:129433\tevalOut:129392\tdot_product:-2364.92\tnorm_sqr:7.049e-05\nevalProx:128811\tevalOut:129392\tdot_product:-1182.96\tnorm_sqr:1.76523e-05\nevalProx:128952\tevalOut:129392\tdot_product:-591.465\tnorm_sqr:4.43227e-06\neval:128952\tt:7.45058e-09\tnoise:0.000380189\tnormalized_eval:10209\nevalProx:133013\tevalOut:133247\tdot_product:-245.31\tnorm_sqr:1.85611e-06\neval:133013\tt:7.45058e-09\tnoise:0.000331131\tnormalized_eval:7988.22\nevalProx:137257\tevalOut:137591\tdot_product:-391.006\tnorm_sqr:2.93913e-06\neval:137257\tt:7.45058e-09\tnoise:0.000288403\tnormalized_eval:6253\nevalProx:141546\tevalOut:141937\tdot_product:-417.485\tnorm_sqr:3.1247e-06\neval:141546\tt:7.45058e-09\tnoise:0.000251189\tnormalized_eval:4891.61\nevalProx:145784\tevalOut:146243\tdot_product:-558.941\tnorm_sqr:4.17875e-06\neval:145784\tt:7.45058e-09\tnoise:0.000218776\tnormalized_eval:3821.76\nevalProx:150276\tevalOut:150474\tdot_product:-1394.11\tnorm_sqr:1.03961e-05\nevalProx:150076\tevalOut:150474\tdot_product:-697.584\tnorm_sqr:2.61223e-06\neval:150076\tt:3.72529e-09\tnoise:0.000190546\tnormalized_eval:2984.47\nevalProx:154550\tevalOut:154968\tdot_product:-1362.33\tnorm_sqr:5.0903e-06\nevalProx:154524\tevalOut:154968\tdot_product:-681.094\tnorm_sqr:1.28363e-06\neval:154524\tt:1.86265e-09\tnoise:0.000165959\tnormalized_eval:2331.05\nevalProx:159126\tevalOut:159356\tdot_product:-245.664\tnorm_sqr:4.68502e-07\neval:159126\tt:1.86265e-09\tnoise:0.000144544\tnormalized_eval:1820.94\nevalProx:163791\tevalOut:164079\tdot_product:-300.004\tnorm_sqr:5.62894e-07\neval:163791\tt:1.86265e-09\tnoise:0.000125893\tnormalized_eval:1421.82\nevalProx:168423\tevalOut:168774\tdot_product:-364.399\tnorm_sqr:6.83411e-07\neval:168423\tt:1.86265e-09\tnoise:0.000109648\tnormalized_eval:1109.06\nevalProx:172933\tevalOut:173335\tdot_product:-426.095\tnorm_sqr:7.9809e-07\neval:172933\tt:1.86265e-09\tnoise:9.54993e-05\tnormalized_eval:863.839\nevalProx:177328\tevalOut:177701\tdot_product:-581.84\tnorm_sqr:1.08795e-06\neval:177328\tt:1.86265e-09\tnoise:8.31764e-05\tnormalized_eval:671.943\nevalProx:188433\tevalOut:182328\tdot_product:-5659.79\tnorm_sqr:1.0544e-05\nevalProx:182431\tevalOut:182328\tdot_product:-2832.69\tnorm_sqr:2.64545e-06\nevalProx:181651\tevalOut:182328\tdot_product:-1416.45\tnorm_sqr:6.67281e-07\nevalProx:181806\tevalOut:182328\tdot_product:-707.258\tnorm_sqr:1.71951e-07\neval:181806\tt:2.32831e-10\tnoise:7.24436e-05\tnormalized_eval:522.593\nevalProx:186353\tevalOut:186559\tdot_product:-272.828\tnorm_sqr:6.61974e-08\neval:186353\tt:2.32831e-10\tnoise:6.30957e-05\tnormalized_eval:406.342\nevalProx:191143\tevalOut:191319\tdot_product:-218.825\tnorm_sqr:5.7622e-08\neval:191143\tt:2.32831e-10\tnoise:5.49541e-05\tnormalized_eval:316.165\nevalProx:196054\tevalOut:196270\tdot_product:-251.906\tnorm_sqr:6.31981e-08\neval:196054\tt:2.32831e-10\tnoise:4.7863e-05\tnormalized_eval:245.997\nevalProx:200996\tevalOut:201260\tdot_product:-289.042\tnorm_sqr:6.97296e-08\neval:200996\tt:2.32831e-10\tnoise:4.16869e-05\tnormalized_eval:191.312\nevalProx:205897\tevalOut:206205\tdot_product:-363.894\tnorm_sqr:8.59656e-08\neval:205897\tt:2.32831e-10\tnoise:3.63078e-05\tnormalized_eval:148.663\nevalProx:210869\tevalOut:211075\tdot_product:-728.366\tnorm_sqr:1.70988e-07\nevalProx:210844\tevalOut:211075\tdot_product:-362.044\tnorm_sqr:4.31062e-08\neval:210844\tt:1.16415e-10\tnoise:3.16228e-05\tnormalized_eval:115.482\nevalProx:215875\tevalOut:216128\tdot_product:-640.205\tnorm_sqr:7.58008e-08\nevalProx:215911\tevalOut:216128\tdot_product:-315.421\tnorm_sqr:1.90895e-08\neval:215911\tt:5.82077e-11\tnoise:2.75423e-05\tnormalized_eval:89.7077\nevalProx:221090\tevalOut:221243\tdot_product:-166.192\tnorm_sqr:1.10946e-08\neval:221090\tt:5.82077e-11\tnoise:2.39883e-05\tnormalized_eval:69.6826\nevalProx:226340\tevalOut:226533\tdot_product:-210.273\tnorm_sqr:1.30892e-08\neval:226340\tt:5.82077e-11\tnoise:2.0893e-05\tnormalized_eval:54.1147\nevalProx:231605\tevalOut:231843\tdot_product:-262.39\tnorm_sqr:1.60297e-08\neval:231605\tt:5.82077e-11\tnoise:1.8197e-05\tnormalized_eval:42.0051\nevalProx:236839\tevalOut:237112\tdot_product:-350.665\tnorm_sqr:2.29823e-08\neval:236839\tt:5.82077e-11\tnoise:1.58489e-05\tnormalized_eval:32.5843\nevalProx:242464\tevalOut:242378\tdot_product:-1031.19\tnorm_sqr:6.16793e-08\nevalProx:242151\tevalOut:242378\tdot_product:-506.202\tnorm_sqr:1.59271e-08\nevalProx:242209\tevalOut:242378\tdot_product:-238.069\tnorm_sqr:4.21522e-09\neval:242209\tt:1.45519e-11\tnoise:1.38038e-05\tnormalized_eval:25.2781\nevalProx:247711\tevalOut:247869\tdot_product:-191.51\tnorm_sqr:3.64623e-09\neval:247711\tt:1.45519e-11\tnoise:1.20226e-05\tnormalized_eval:19.611\nevalProx:253321\tevalOut:253499\tdot_product:-215.663\tnorm_sqr:3.98335e-09\neval:253321\tt:1.45519e-11\tnoise:1.04713e-05\tnormalized_eval:15.2134\nevalProx:259021\tevalOut:259226\tdot_product:-251.702\tnorm_sqr:4.54112e-09\neval:259021\tt:1.45519e-11\tnoise:9.12011e-06\tnormalized_eval:11.8002\nevalProx:264767\tevalOut:265022\tdot_product:-351.871\tnorm_sqr:6.12348e-09\neval:264767\tt:1.45519e-11\tnoise:7.94328e-06\tnormalized_eval:9.14995\nevalProx:270533\tevalOut:270840\tdot_product:-554.91\tnorm_sqr:9.30457e-09\neval:270533\tt:1.45519e-11\tnoise:6.91831e-06\tnormalized_eval:7.09211\nevalProx:276458\tevalOut:276744\tdot_product:-1351.4\tnorm_sqr:2.08568e-08\nevalProx:276384\tevalOut:276744\tdot_product:-646.917\tnorm_sqr:5.55461e-09\neval:276384\tt:7.27596e-12\tnoise:6.0256e-06\tnormalized_eval:5.49626\nevalProx:282324\tevalOut:282632\tdot_product:-688.151\tnorm_sqr:5.85079e-09\neval:282324\tt:7.27596e-12\tnoise:5.24807e-06\tnormalized_eval:4.25895\nevalProx:288875\tevalOut:288848\tdot_product:-2018.29\tnorm_sqr:1.55592e-08\nevalProx:288419\tevalOut:288848\tdot_product:-925.454\tnorm_sqr:3.67988e-09\neval:288419\tt:3.63798e-12\tnoise:4.57088e-06\tnormalized_eval:3.30049\nevalProx:294752\tevalOut:295198\tdot_product:-1651.07\tnorm_sqr:6.8219e-09\nevalProx:294788\tevalOut:295198\tdot_product:-680.133\tnorm_sqr:1.49297e-09\neval:294788\tt:1.81899e-12\tnoise:3.98107e-06\tnormalized_eval:2.55896\nevalProx:301240\tevalOut:301695\tdot_product:-652.679\tnorm_sqr:1.93161e-09\neval:301240\tt:1.81899e-12\tnoise:3.46737e-06\tnormalized_eval:1.98366\nevalProx:307743\tevalOut:308167\tdot_product:-623.341\tnorm_sqr:1.7096e-09\neval:307743\tt:1.81899e-12\tnoise:3.01995e-06\tnormalized_eval:1.53725\nevalProx:314346\tevalOut:314753\tdot_product:-636.797\tnorm_sqr:1.78736e-09\neval:314346\tt:1.81899e-12\tnoise:2.63027e-06\tnormalized_eval:1.19114\nevalProx:321027\tevalOut:321538\tdot_product:-943.778\tnorm_sqr:2.48083e-09\neval:321027\tt:1.81899e-12\tnoise:2.29087e-06\tnormalized_eval:0.922777\nevalProx:327787\tevalOut:328427\tdot_product:-1473.33\tnorm_sqr:3.66842e-09\neval:327787\tt:1.81899e-12\tnoise:1.99526e-06\tnormalized_eval:0.714736\nevalProx:334617\tevalOut:335463\tdot_product:-2633.88\tnorm_sqr:5.67107e-09\nevalProx:334832\tevalOut:335463\tdot_product:-976.399\tnorm_sqr:1.18826e-09\neval:334832\tt:9.09495e-13\tnoise:1.7378e-06\tnormalized_eval:0.553836\nevalProx:341747\tevalOut:342755\tdot_product:-1821.04\tnorm_sqr:2.68304e-09\neval:341747\tt:9.09495e-13\tnoise:1.51356e-06\tnormalized_eval:0.428805\nevalProx:348624\tevalOut:349543\tdot_product:-1785.87\tnorm_sqr:2.19967e-09\neval:348624\tt:9.09495e-13\tnoise:1.31826e-06\tnormalized_eval:0.331827\nevalProx:355955\tevalOut:356582\tdot_product:-2862.3\tnorm_sqr:3.28815e-09\nevalProx:356099\tevalOut:356582\tdot_product:-867.179\tnorm_sqr:5.43905e-10\neval:356099\tt:4.54747e-13\tnoise:1.14815e-06\tnormalized_eval:0.257114\nevalProx:363546\tevalOut:364965\tdot_product:-3483.17\tnorm_sqr:2.07784e-09\neval:363546\tt:4.54747e-13\tnoise:1e-06\tnormalized_eval:0.199119\noptimization finished. calc eval func of the final result\neval:363546\tnoise:1e-06\tnormalized_eval:0.199119\tlast_iter:101\tlast_iter2:42\ncalcEval:0.135291\ncalcEvalGrad:0.221419\noptimize_loop1:7e-06\nPeak RSS(MB)\t1932\tCurrent RSS(MB)\t1932\ndownsampled\nPeak RSS(MB)\t1932\tCurrent RSS(MB)\t1012\ncalculate correct normalized eval\nGradCalculator initialized\nunit_eval:3.51944e+06\nnormalized_eval:0.103297\tlimiting_error:0.114631\nphase limiting lap: 45.3355\nPeak RSS(MB)\t1932\tCurrent RSS(MB)\t1237\nclip detect disabled\nprocess ffmpeg -i \"/tmp/phase_limiter/3O38mNWYp7BNLclNPP4xOjRvMXJFookb.wav\"  -acodec pcm_s16le -f wav  -ac 2 -ar 44100  \"/tmp/phase_limiter/yXJf06E1wtYZHAPKujvb61VK6FEkpPit.wav\"\nprocess called\nid57380\nstdin closed\nffmpeg version 5.1.2 Copyright (c) 2000-2022 the FFmpeg developers\n  built with Apple clang version 13.0.0 (clang-1300.0.29.30)\n  configuration: --prefix=/usr/local/Cellar/ffmpeg/5.1.2_4 --enable-shared --enable-pthreads --enable-version3 --cc=clang --host-cflags= --host-ldflags= --enable-ffplay --enable-gnutls --enable-gpl --enable-libaom --enable-libaribb24 --enable-libbluray --enable-libdav1d --enable-libmp3lame --enable-libopus --enable-librav1e --enable-librist --enable-librubberband --enable-libsnappy --enable-libsrt --enable-libsvtav1 --enable-libtesseract --enable-libtheora --enable-libvidstab --enable-libvmaf --enable-libvorbis --enable-libvpx --enable-libwebp --enable-libx264 --enable-libx265 --enable-libxml2 --enable-libxvid --enable-lzma --enable-libfontconfig --enable-libfreetype --enable-frei0r --enable-libass --enable-libopencore-amrnb --enable-libopencore-amrwb --enable-libopenjpeg --enable-libspeex --enable-libsoxr --enable-libzmq --enable-libzimg --disable-libjack --disable-indev=jack --enable-videotoolbox\n  libavutil      57. 28.100 / 57. 28.100\n  libavcodec     59. 37.100 / 59. 37.100\n  libavformat    59. 27.100 / 59. 27.100\n  libavdevice    59.  7.100 / 59.  7.100\n  libavfilter     8. 44.100 /  8. 44.100\n  libswscale      6.  7.100 /  6.  7.100\n  libswresample   4.  7.100 /  4.  7.100\n  libpostproc    56.  6.100 / 56.  6.100\nGuessed Channel Layout for Input Stream #0.0 : stereo\nInput #0, wav, from '/tmp/phase_limiter/3O38mNWYp7BNLclNPP4xOjRvMXJFookb.wav':\n  Duration: 00:03:11.17, bitrate: 2822 kb/s\n  Stream #0:0: Audio: pcm_f32le ([3][0][0][0] / 0x0003), 44100 Hz, stereo, flt, 2822 kb/s\nStream mapping:\n  Stream #0:0 -> #0:0 (pcm_f32le (native) -> pcm_s16le (native))\nPress [q] to stop, [?] for help\nOutput #0, wav, to '/tmp/phase_limiter/yXJf06E1wtYZHAPKujvb61VK6FEkpPit.wav':\n  Metadata:\n    ISFT            : Lavf59.27.100\n  Stream #0:0: Audio: pcm_s16le ([1][0][0][0] / 0x0001), 44100 Hz, stereo, s16, 1411 kb/s\n    Metadata:\n      encoder         : Lavc59.37.100 pcm_s16le\nsize=       2kB time=00:00:00.01 bitrate=1464.9kbits/s speed=5.81e+03x    \nsize=   32932kB time=00:03:11.16 bitrate=1411.2kbits/s speed=1.16e+03x    \nvideo:0kB audio:32932kB subtitle:0kB other streams:0kB global headers:0kB muxing overhead: 0.000231%\nexit_status0\nsave lap: 46.6908\nPeak RSS(MB)\t1932\tCurrent RSS(MB)\t1237\nrename lap: 46.6911\nPeak RSS(MB)\t1932\tCurrent RSS(MB)\t1237\nPeak RSS(MB)\t1932\tCurrent RSS(MB)\t1237\nquick exiting: 0\n",
                "stdout": "progression: 0.307\nprogression: 0.314\nprogression: 0.321\nprogression: 0.328\nprogression: 0.335\nprogression: 0.342\nprogression: 0.349\nprogression: 0.356\nprogression: 0.363\nprogression: 0.37\nprogression: 0.377\nprogression: 0.384\nprogression: 0.391\nprogression: 0.398\nprogression: 0.405\nprogression: 0.412\nprogression: 0.419\nprogression: 0.426\nprogression: 0.433\nprogression: 0.44\nprogression: 0.447\nprogression: 0.454\nprogression: 0.461\nprogression: 0.468\nprogression: 0.475\nprogression: 0.482\nprogression: 0.489\nprogression: 0.496\nprogression: 0.503\nprogression: 0.51\nprogression: 0.517\nprogression: 0.524\nprogression: 0.531\nprogression: 0.538\nprogression: 0.545\nprogression: 0.552\nprogression: 0.559\nprogression: 0.566\nprogression: 0.573\nprogression: 0.58\nprogression: 0.587\nprogression: 0.594\nprogression: 0.601\nprogression: 0.608\nprogression: 0.615\nprogression: 0.622\nprogression: 0.629\nprogression: 0.636\nprogression: 0.643\nprogression: 0.65\nprogression: 0.657\nprogression: 0.664\nprogression: 0.671\nprogression: 0.678\nprogression: 0.685\nprogression: 0.692\nprogression: 0.699\nprogression: 0.706\nprogression: 0.713\nprogression: 0.72\nprogression: 0.727\nprogression: 0.734\nprogression: 0.741\nprogression: 0.748\nprogression: 0.755\nprogression: 0.762\nprogression: 0.769\nprogression: 0.776\nprogression: 0.783\nprogression: 0.79\nprogression: 0.797\nprogression: 0.804\nprogression: 0.811\nprogression: 0.818\nprogression: 0.825\nprogression: 0.832\nprogression: 0.839\nprogression: 0.846\nprogression: 0.853\nprogression: 0.86\nprogression: 0.867\nprogression: 0.874\nprogression: 0.881\nprogression: 0.888\nprogression: 0.895\nprogression: 0.902\nprogression: 0.909\nprogression: 0.916\nprogression: 0.923\nprogression: 0.93\nprogression: 0.937\nprogression: 0.944\nprogression: 0.951\nprogression: 0.958\nprogression: 0.965\nprogression: 0.972\nprogression: 0.979\nprogression: 0.986\nprogression: 0.993\nprogression: 1\nprogression: 1\n"
            },
            "output": "/tmp/6b16177d-d52d-4782-ada9-14d64918ac34-mastering.wav",
            "perf": {
                "start": "2023-04-12 19:01:42",
                "stop": "2023-04-12 19:02:29",
                "time_elapsed": 46.78647184371948,
                "time_start": 1681340502.215161,
                "time_stop": 1681340549.001633
            }
        },
        "in-progress": {
            "percent": 100.0
        },
        "status": "completed"
    },
    "midi": {
        "status": "not-available"
    },
    "stems": {
        "in-progress": {
            "percent": 3.0
        },
        "status": "in-progress"
    },
    "uuid": "6b16177d-d52d-4782-ada9-14d64918ac34"
}
